<svg xmlns="http://www.w3.org/2000/svg"
 xmlns:xlink="http://www.w3.org/1999/xlink"
 width="172px" height="54px"  viewBox="0 0 172 54">
<path fill-rule="evenodd"  fill="#ececec"
 d="M170.14966,3.8389893 C170.14966,3.8389893 86.87146,51.785156 86.87146,51.785156 C86.392395,52.060913 85.779785,51.896973 85.503235,51.41931 C85.226746,50.941772 85.390625,50.330566 85.86987,50.05481 C85.86987,50.05481 169.14783,2.1090088 169.14783,2.1090088 C169.62695,1.8331299 170.23975,1.9967041 170.51636,2.4743652 C170.79285,2.9522705 170.62866,3.5631104 170.14966,3.8389893 ZM2.291626,3.8389893 C2.291626,3.8389893 85.447266,51.785156 85.447266,51.785156 C85.92572,52.060913 86.53717,51.896973 86.81354,51.41931 C87.08984,50.941772 86.925964,50.330566 86.44733,50.05481 C86.44733,50.05481 3.291748,2.1090088 3.291748,2.1090088 C2.8132324,1.8331299 2.201416,1.9967041 1.925415,2.4743652 C1.6491699,2.9522705 1.8130493,3.5631104 2.291626,3.8389893 Z"/>
</svg>