<svg xmlns="http://www.w3.org/2000/svg"
 xmlns:xlink="http://www.w3.org/1999/xlink"
 width="9px" height="13px"  viewBox="0 0 9 13">
<path fill-rule="evenodd"  fill="#ffffff"
 d="M7.678528,10.440308 C7.678528,10.440308 2.7333374,5.8294067 2.7333374,5.8294067 C2.562683,5.670227 2.2858887,5.670227 2.1152344,5.8294067 C1.944458,5.9882812 1.944458,6.246521 2.1152344,6.4057617 C2.1152344,6.4057617 7.060425,11.016663 7.060425,11.016663 C7.231079,11.175842 7.5079346,11.175842 7.678528,11.016663 C7.849304,10.857422 7.849304,10.599548 7.678528,10.440308 ZM2.7333374,6.4057617 C2.7333374,6.4057617 7.678528,1.7948608 7.678528,1.7948608 C7.849304,1.6356201 7.849304,1.3770752 7.678528,1.2182007 C7.5079346,1.05896 7.231079,1.05896 7.060425,1.2182007 C7.060425,1.2182007 2.1152344,5.8294067 2.1152344,5.8294067 C1.944458,5.9882812 1.944458,6.246521 2.1152344,6.4057617 C2.2858887,6.5649414 2.562683,6.5649414 2.7333374,6.4057617 Z"/>
</svg>