<svg xmlns="http://www.w3.org/2000/svg"
 xmlns:xlink="http://www.w3.org/1999/xlink"
 width="22px" height="63px"  viewBox="0 0 22 63">
<path fill-rule="evenodd"  fill="#00c2f0"
 d="M18.13385,2.619629 C18.13385,2.619629 2.13385,30.395264 2.13385,30.395264 C1.8576965,30.874756 2.021576,31.487793 2.499817,31.764404 C2.9782104,32.04126 3.5897827,31.876953 3.8659058,31.39746 C3.8659058,31.39746 19.865906,3.6220703 19.865906,3.6220703 C20.142029,3.1425781 19.97815,2.529541 19.499908,2.2526855 C19.021545,1.9760742 18.409973,2.1403809 18.13385,2.619629 ZM18.13385,60.614746 C18.13385,60.614746 2.13385,32.546387 2.13385,32.546387 C1.8576965,32.0625 2.021576,31.442871 2.499817,31.163086 C2.9782104,30.883545 3.5897827,31.049316 3.8659058,31.533691 C3.8659058,31.533691 19.865906,59.601807 19.865906,59.601807 C20.142029,60.08618 19.97815,60.70581 19.499908,60.985596 C19.021545,61.265137 18.409973,61.09912 18.13385,60.614746 Z"/>
</svg>