<svg xmlns="http://www.w3.org/2000/svg"
 xmlns:xlink="http://www.w3.org/1999/xlink"
 width="22px" height="62px"  viewBox="0 0 22 62">
<path fill-rule="evenodd"  fill="#00c2f0"
 d="M3.8658447,1.7746582 C3.8658447,1.7746582 19.865845,29.476562 19.865845,29.476562 C20.141968,29.954834 19.97815,30.565918 19.499878,30.842041 C19.021606,31.118164 18.409912,30.954346 18.133911,30.476318 C18.133911,30.476318 2.133789,2.77417 2.133789,2.77417 C1.857666,2.2956543 2.0214844,1.6845703 2.499878,1.4086914 C2.9781494,1.1325684 3.5897217,1.2966309 3.8658447,1.7746582 ZM3.8658447,59.61621 C3.8658447,59.61621 19.865845,31.622314 19.865845,31.622314 C20.141968,31.13916 19.97815,30.521729 19.499878,30.242432 C19.021606,29.963623 18.409912,30.128906 18.133911,30.612305 C18.133911,30.612305 2.133789,58.605713 2.133789,58.605713 C1.857666,59.08911 2.0214844,59.706787 2.499878,59.985596 C2.9781494,60.264404 3.5897217,60.09912 3.8658447,59.61621 Z"/>
</svg>