<svg xmlns="http://www.w3.org/2000/svg"
 xmlns:xlink="http://www.w3.org/1999/xlink"
 width="9px" height="14px"  viewBox="0 0 9 14">
<path fill-rule="evenodd"  fill="#ffffff"
 d="M1.5753784,11.576904 C1.5753784,11.576904 6.277771,6.833496 6.277771,6.833496 C6.4401245,6.670227 6.703247,6.670227 6.8656616,6.833496 C7.027893,6.9974365 7.027893,7.2627563 6.8656616,7.426697 C6.8656616,7.426697 2.163269,12.169739 2.163269,12.169739 C2.0008545,12.333374 1.737793,12.333374 1.5753784,12.169739 C1.4130859,12.005798 1.4130859,11.740845 1.5753784,11.576904 ZM6.277771,7.426697 C6.277771,7.426697 1.5753784,2.6836548 1.5753784,2.6836548 C1.4130859,2.5197144 1.4130859,2.2543335 1.5753784,2.090393 C1.737793,1.9268188 2.0008545,1.9268188 2.163269,2.090393 C2.163269,2.090393 6.8656616,6.833496 6.8656616,6.833496 C7.027893,6.9974365 7.027893,7.2627563 6.8656616,7.426697 C6.703247,7.590637 6.4401245,7.590637 6.277771,7.426697 Z"/>
</svg>